<?xml version="1.0" encoding="utf-8"?>
<!-- Generator: Adobe Illustrator 22.0.1, SVG Export Plug-In . SVG Version: 6.00 Build 0)  -->
<svg version="1.1" id="Layer_1" xmlns="http://www.w3.org/2000/svg" xmlns:xlink="http://www.w3.org/1999/xlink" x="0px" y="0px"
	 viewBox="0 0 24 24" style="enable-background:new 0 0 24 24;" xml:space="preserve">
<style type="text/css">
	.st0{fill:none;}
	.st1{fill:none;stroke:#E4241B;stroke-width:2;stroke-miterlimit:10;}
</style>
<path class="st0" d="M0,0h24v24H0V0z"/>
<path class="st1" d="M22,6c0-1.1-0.9-2-2-2H4C2.9,4,2,4.9,2,6v12c0,1.1,0.9,2,2,2h16c1.1,0,2-0.9,2-2V6z M19.1,6.6L12,11L4.9,6.6
	C4.6,6.4,4.7,6,5,6h14C19.3,6,19.4,6.4,19.1,6.6z M20,18H4V8.5c0-0.2,0.3-0.4,0.5-0.3L12,13l7.5-4.7c0.2-0.1,0.5,0,0.5,0.3V18z"/>
</svg>
